<svg height="512pt" viewBox="-44 0 512 512" width="512pt" xmlns="http://www.w3.org/2000/svg"><path d="m405.109375 286.054688h-20.867187v-51.257813h20.867187c5.910156 0 10.703125 4.789063 10.703125 10.699219v29.859375c0 5.910156-4.792969 10.699219-10.703125 10.699219zm0 0" fill="#48ffe0"/><path d="m330.378906 373.96875v-198.816406l57.25 37.675781c3.007813 1.976563 4.816406 5.335937 4.816406 8.9375v90.132813c0 34.28125-27.789062 62.070312-62.066406 62.070312zm0 0" fill="#618baa"/><path d="m392.445312 221.769531v90.128907c0 34.28125-27.789062 62.070312-62.070312 62.070312v-7.75c27.199219-6.589844 47.402344-31.089844 47.402344-60.320312v-99.546876l9.847656 6.476563c3.011719 1.980469 4.820312 5.34375 4.820312 8.941406zm0 0" fill="#4e7693"/><path d="m353.539062 160.484375-9.707031 227.796875c-2.042969 47.792969-41.382812 85.496094-89.230469 85.496094h-62.699218v-406.394532h72.417968c50.8125 0 91.378907 42.335938 89.21875 93.101563zm0 0" fill="#bddff4"/><path d="m353.539062 160.484375-9.707031 227.796875c-2.042969 47.792969-41.382812 85.496094-89.230469 85.496094h-21.046874c47.84375 0 87.183593-37.703125 89.226562-85.496094l9.707031-227.796875c2.164063-50.765625-38.40625-93.101563-89.21875-93.101563h21.050781c50.8125 0 91.378907 42.335938 89.21875 93.101563zm0 0" fill="#9cc6db"/><path d="m352.695312 180.285156-8.863281 207.996094c-1.816406 42.476562-33.089843 76.976562-73.613281 84.136719-5.074219.886719-10.285156 1.359375-15.617188 1.359375h-62.699218v-210.535156h22.128906c14.214844 0 27.410156-7.382813 34.847656-19.507813l26.933594-43.941406c7.4375-12.125 20.632812-19.511719 34.84375-19.511719h42.039062zm0 0" fill="#9cc6db"/><path d="m270.214844 381.976562v90.4375c-5.070313.890626-10.28125 1.359376-15.613282 1.359376h-62.699218v-113.199219h56.910156c11.824219 0 21.402344 9.585937 21.402344 21.402343zm0 0" fill="#2f5e75"/><path d="m352.695312 180.285156-8.863281 207.996094c-2.042969 47.792969-41.382812 85.496094-89.230469 85.496094h-21.046874c47.84375 0 87.183593-37.703125 89.226562-85.496094l8.863281-207.996094zm0 0" fill="#84a1c0"/><path d="m239.058594 63.105469v79.625c0 26.195312-21.054688 47.457031-47.15625 47.792969v-139.34375h35.226562c6.585938 0 11.929688 5.339843 11.929688 11.925781zm0 0" fill="#618baa"/><path d="m191.902344 67.378906h-38.054688c-76.226562 0-138.019531 61.792969-138.019531 138.015625v28.941407c0 42.730468 34.640625 77.367187 77.371094 77.367187h98.703125zm0 0" fill="#43a3f9"/><path d="m172.445312 67.378906h19.460938v244.332032h-19.460938zm0 0" fill="#1685fb"/><path d="m191.902344 269.664062h-98.703125c-40.835938 0-74.289063-31.644531-77.167969-71.753906-.140625 2.484375-.203125 4.976563-.203125 7.492188v28.9375c0 42.730468 34.640625 77.359375 77.371094 77.359375h98.703125zm0 0" fill="#1685fb"/><path d="m89.316406 319.667969c0 22.59375-18.316406 40.910156-40.910156 40.910156-22.589844 0-40.90625-18.316406-40.90625-40.910156s18.316406-40.90625 40.90625-40.90625c22.59375 0 40.910156 18.3125 40.910156 40.90625zm0 0" fill="#fecbaa"/><path d="m191.90625 167.679688v306.101562h-31.789062c-47.359376 0-86.480469-36.980469-89.160157-84.261719l-10.8125-190.949219c-.949219-16.769531 12.390625-30.890624 29.191407-30.890624zm0 0" fill="#fedfc5"/><path d="m172.445312 167.679688h19.460938v306.101562h-19.460938zm0 0" fill="#fecbaa"/><path d="m172.445312 145.238281v108.210938h-121.929687c-3.980469 0-7.210937-3.230469-7.210937-7.21875v-50.492188c0-27.886719 22.609374-50.5 50.5-50.5zm0 0" fill="#43a3f9"/><path d="m191.90625 145.238281v105.191407c-6.082031 1.949218-12.550781 3.019531-19.28125 3.019531h-.179688v-108.210938zm0 0" fill="#1685fb"/><path d="m191.902344 299.953125c-.683594-.125-7.804688-.1875-8.519532-.1875-5.851562 0-10.816406 4.296875-11.652343 10.085937l-7.410157 51.117188c-1.027343 7.101562 4.480469 13.46875 11.65625 13.46875h15.925782zm0 0" fill="#fd8289"/><path d="m295.417969 306.183594c0 13.921875-11.28125 25.203125-25.203125 25.203125-13.917969 0-25.203125-11.28125-25.203125-25.203125 0-13.917969 11.285156-25.203125 25.203125-25.203125 13.921875 0 25.203125 11.285156 25.203125 25.203125zm0 0" fill="#48ffe0"/><path d="m295.417969 306.1875c0 13.914062-11.277344 25.203125-25.199219 25.203125-3.0625 0-5.984375-.546875-8.691406-1.542969 9.640625-3.53125 16.523437-12.796875 16.523437-23.660156 0-10.871094-6.882812-20.128906-16.523437-23.660156 2.707031-.996094 5.628906-1.542969 8.691406-1.542969 13.921875 0 25.199219 11.28125 25.199219 25.203125zm0 0" fill="#00e5b9"/><path d="m398.441406 25.292969c0 9.824219-7.964844 17.792969-17.792968 17.792969-9.824219 0-17.792969-7.96875-17.792969-17.792969 0-9.828125 7.96875-17.792969 17.792969-17.792969 9.828124 0 17.792968 7.964844 17.792968 17.792969zm0 0" fill="#48ffe0"/><path d="m127.84375 197.90625c0 13.921875-11.285156 25.203125-25.203125 25.203125s-25.203125-11.28125-25.203125-25.203125c0-13.917969 11.285156-25.203125 25.203125-25.203125s25.203125 11.285156 25.203125 25.203125zm0 0" fill="#48ffe0"/><path d="m127.84375 197.910156c0 13.914063-11.28125 25.203125-25.203125 25.203125-3.0625 0-5.984375-.546875-8.691406-1.539062 9.644531-3.535157 16.523437-12.800781 16.523437-23.664063 0-10.871094-6.878906-20.128906-16.523437-23.660156 2.707031-.992188 5.628906-1.539062 8.691406-1.539062 13.921875 0 25.203125 11.277343 25.203125 25.199218zm0 0" fill="#00e5b9"/><path d="m405.109375 227.292969h-5.164063v-5.527344c0-6.144531-3.0625-11.828125-8.195312-15.203125l-3.601562-2.371094v-154.742187c10.296874-3.203125 17.792968-12.820313 17.792968-24.15625 0-13.945313-11.347656-25.292969-25.292968-25.292969-13.945313 0-25.292969 11.347656-25.292969 25.292969 0 11.335937 7.496093 20.953125 17.792969 24.15625v144.871093l-13.175782-8.671874 1.058594-24.839844c.941406-22.003906-5.375-43.039063-18.261719-60.835938-2.429687-3.355468-7.117187-4.105468-10.472656-1.675781s-4.105469 7.117187-1.675781 10.472656c10.882812 15.035157 16.21875 32.808594 15.425781 51.398438l-.539063 12.613281h-34.847656c-16.703125 0-32.503906 8.847656-41.238281 23.089844l-26.941406 43.941406c-6.023438 9.824219-16.925781 15.929688-28.453125 15.929688h-14.625v-5.339844c0-.023438 0-.046875 0-.070313v-52.917969c26.59375-3.972656 47.15625-27.097656 47.15625-54.683593v-31.816407h31.914062c4.140625 0 7.5-3.359374 7.5-7.5 0-4.144531-3.359375-7.5-7.5-7.5h-31.914062v-21.035156h17.757812c15.3125 0 30.234375 4.253906 43.15625 12.296875 1.230469.769531 2.601563 1.132813 3.957032 1.132813 2.503906 0 4.953124-1.253906 6.375-3.535156 2.1875-3.515626 1.113281-8.140626-2.402344-10.332032-15.304688-9.527344-32.96875-14.5625-51.085938-14.5625h-18.050781c-1.542969-9.179687-9.527344-16.199218-19.136719-16.199218h-27.726562v-36.179688c0-4.140625-3.359375-7.5-7.5-7.5s-7.5 3.359375-7.5 7.5v52.378906h-30.558594c-80.238281 0-145.515625 65.277344-145.515625 145.515625v28.941407c0 16.179687 4.496094 31.679687 13.039063 45.199218-12.882813 8.710938-21.367188 23.449219-21.367188 40.132813 0 26.691406 21.714844 48.410156 48.40625 48.410156 4.652344 0 9.273438-.695313 13.710938-2l1.351562 23.863281c2.898438 51.214844 45.351562 91.335938 96.652344 91.335938h24.28125v23.222656c0 4.140625 3.359375 7.5 7.5 7.5s7.5-3.359375 7.5-7.5v-23.222656h55.203125c22.035156 0 43.617187-7.621094 60.761719-21.457032 3.222656-2.601562 3.726562-7.324218 1.125-10.546874-2.601563-3.222657-7.324219-3.726563-10.546876-1.125-8.375 6.757812-18 11.746093-28.230468 14.765624v-80.9375c0-15.9375-12.964844-28.902343-28.902344-28.902343h-49.410156v-82.332031h14.625c16.707031 0 32.507812-8.84375 41.242187-23.085938l26.9375-43.941406c6.027344-9.824219 16.929688-15.929688 28.453125-15.929688h34.207032l-8.53125 200.175782c-.542969 12.683593-3.914063 24.75-10.023438 35.863281-1.996094 3.628906-.667969 8.1875 2.960938 10.183593 1.144531.632813 2.382812.929688 3.605468.929688 2.648438 0 5.214844-1.40625 6.578125-3.886719 7.230469-13.15625 11.222657-27.4375 11.863281-42.453125l.449219-10.496094c27.382813-8.8125 46.515625-33.621093 48.0625-62.429687h6.347657c4.140624 0 7.5-3.355469 7.5-7.5 0-4.140625-3.359376-7.5-7.5-7.5h-6.234376v-7.117187h5.164063c10.035156 0 18.203125-8.164063 18.203125-18.199219v-29.859375c0-10.035156-8.164062-18.203125-18.203125-18.203125zm-24.460937-212.292969c5.675781 0 10.292968 4.617188 10.292968 10.292969s-4.617187 10.292969-10.292968 10.292969c-5.675782 0-10.292969-4.617188-10.292969-10.292969s4.617187-10.292969 10.292969-10.292969zm-196.246094 351.933594h-8.425782c-1.703124 0-2.757812-.925782-3.234374-1.476563-.476563-.550781-1.242188-1.730469-1-3.410156l7.410156-51.121094c.300781-2.085937 2.121094-3.660156 4.230468-3.660156.199219 0 .558594 0 1.019532.003906zm42.726562-308.253906c2.441406 0 4.429688 1.984374 4.429688 4.425781v79.625c0 19.335937-13.859375 35.664062-32.15625 39.460937v-123.511718zm-178.722656 294.398437c-18.417969 0-33.40625-14.988281-33.40625-33.40625 0-18.421875 14.988281-33.410156 33.40625-33.410156 3.167969 0 6.273438.4375 9.265625 1.300781l3.5625 62.949219c-4.042969 1.675781-8.414063 2.566406-12.828125 2.566406zm111.714844 113.199219c-43.351563 0-79.226563-33.902344-81.679688-77.183594l-7.25-128.144531h18.125c4.144532 0 7.5-3.359375 7.5-7.5s-3.355468-7.5-7.5-7.5h-38.511718v-50.214844c0-4.140625-3.359376-7.5-7.5-7.5-4.140626 0-7.5 3.359375-7.5 7.5v50.5c0 8.113281 6.601562 14.714844 14.714843 14.714844h5.644531l.625 11.046875c-2.75-.480469-5.550781-.734375-8.382812-.734375-4.621094 0-9.082031.664062-13.316406 1.878906-7.703125-11.496094-11.761719-24.84375-11.761719-38.804687v-28.941407c0-71.964843 58.550781-130.515625 130.515625-130.515625h30.558594v169.796875c-3.863282.839844-7.800782 1.273438-11.773438 1.273438h-47.972656c-4.140625 0-7.5 3.355469-7.5 7.5 0 4.140625 3.359375 7.5 7.5 7.5h47.972656c3.957032 0 7.890625-.34375 11.773438-1v32.316406c-.503906-.003906-.871094-.003906-1.019532-.003906-9.511718 0-17.714843 7.097656-19.078124 16.511719l-7.40625 51.117187c-.804688 5.542969.835937 11.148437 4.5 15.382813 3.664062 4.234374 8.980468 6.660156 14.578124 6.660156h8.425782v25.457031h-27.117188c-4.140625 0-7.5 3.355469-7.5 7.5 0 4.140625 3.359375 7.5 7.5 7.5h27.117188v43.886719zm88.691406-98.203125c7.667969 0 13.902344 6.238281 13.902344 13.902343v83.878907c-2.6875.269531-5.394532.421875-8.109375.421875h-55.203125v-98.203125zm134.691406-148.980469c.902344.59375 1.441406 1.59375 1.441406 2.671875v31.160156h-27.839843l2.125-49.808593zm1.441406 92.804688c0 21.917968-12.980468 41.332031-32.480468 49.925781l3.039062-71.265625h13.765625c4.144531 0 7.5-3.359375 7.5-7.5 0-4.144532-3.355469-7.5-7.5-7.5h-13.128906l.324219-7.632813h28.480468zm23.367188-36.546876c0 1.765626-1.4375 3.203126-3.203125 3.203126h-5.164063v-36.257813h5.164063c1.765625 0 3.203125 1.433594 3.203125 3.199219zm0 0"/><path d="m130.089844 302.585938h-.191406c-4.140626.007812-7.492188 3.375-7.480469 7.515624.011719 4.136719 3.367187 7.484376 7.5 7.484376h.019531.191406c4.144532-.011719 7.492188-3.378907 7.480469-7.519532-.011719-4.144531-3.347656-7.480468-7.519531-7.480468zm0 0"/><path d="m237.511719 306.183594c0 18.035156 14.671875 32.703125 32.703125 32.703125 18.035156 0 32.703125-14.667969 32.703125-32.703125 0-18.03125-14.667969-32.703125-32.703125-32.703125-18.03125 0-32.703125 14.671875-32.703125 32.703125zm50.40625 0c0 9.761718-7.941407 17.703125-17.703125 17.703125-9.761719 0-17.703125-7.941407-17.703125-17.703125 0-9.761719 7.941406-17.703125 17.703125-17.703125 9.761718 0 17.703125 7.941406 17.703125 17.703125zm0 0"/><path d="m220.710938 396.902344h16.050781c4.144531 0 7.5-3.355469 7.5-7.5 0-4.140625-3.355469-7.5-7.5-7.5h-16.050781c-4.140626 0-7.5 3.359375-7.5 7.5 0 4.144531 3.359374 7.5 7.5 7.5zm0 0"/><path d="m220.710938 416.878906h16.050781c4.144531 0 7.5-3.359375 7.5-7.5s-3.355469-7.5-7.5-7.5h-16.050781c-4.140626 0-7.5 3.359375-7.5 7.5s3.359374 7.5 7.5 7.5zm0 0"/><path d="m220.710938 436.855469h16.050781c4.144531 0 7.5-3.359375 7.5-7.5s-3.355469-7.5-7.5-7.5h-16.050781c-4.140626 0-7.5 3.359375-7.5 7.5s3.359374 7.5 7.5 7.5zm0 0"/><path d="m143.007812 275.628906-31.332031-4.296875c-4.101562-.5625-7.886719 2.308594-8.449219 6.410157-.5625 4.105468 2.308594 7.886718 6.410157 8.449218l31.335937 4.296875c.34375.046875.6875.070313 1.027344.070313 3.6875 0 6.90625-2.722656 7.421875-6.480469.5625-4.105469-2.308594-7.886719-6.414063-8.449219zm0 0"/><path d="m135.34375 197.90625c0-18.03125-14.671875-32.703125-32.703125-32.703125s-32.703125 14.671875-32.703125 32.703125c0 18.035156 14.667969 32.703125 32.703125 32.703125 18.03125 0 32.703125-14.667969 32.703125-32.703125zm-32.703125 17.703125c-9.761719 0-17.703125-7.9375-17.703125-17.703125 0-9.761719 7.941406-17.703125 17.703125-17.703125s17.703125 7.941406 17.703125 17.703125c0 9.765625-7.941406 17.703125-17.703125 17.703125zm0 0"/><path d="m33.753906 88.003906c1.464844 1.457032 3.375 2.183594 5.289063 2.183594 1.925781 0 3.851562-.734375 5.316406-2.207031 2.921875-2.9375 2.910156-7.6875-.023437-10.609375l-6.726563-6.691406c-2.9375-2.917969-7.6875-2.910157-10.605469.027343-2.921875 2.933594-2.910156 7.683594.023438 10.605469zm0 0"/><path d="m14.851562 106.492188 9.171876 2.433593c.644531.171875 1.289062.253907 1.925781.253907 3.320312 0 6.355469-2.21875 7.246093-5.578126 1.0625-4.003906-1.324218-8.113281-5.328124-9.171874l-9.171876-2.4375c-4-1.0625-8.109374 1.324218-9.171874 5.328124-1.058594 4.003907 1.324218 8.109376 5.328124 9.171876zm0 0"/><path d="m50.726562 71.457031c.90625 3.34375 3.929688 5.542969 7.238282 5.542969.644531 0 1.304687-.085938 1.960937-.261719 4-1.082031 6.363281-5.199219 5.28125-9.199219l-2.480469-9.160156c-1.082031-4-5.195312-6.363281-9.199218-5.28125-3.996094 1.082032-6.363282 5.199219-5.28125 9.199219zm0 0"/></svg>