<svg height="512pt" viewBox="0 -14 512.00035 512" width="512pt" xmlns="http://www.w3.org/2000/svg"><path d="m504.5 81.484375-117.140625 151.578125-131.359375 169.992188-131.359375-169.992188-117.140625-151.578125zm0 0" fill="#a6ffee"/><path d="m347.390625 284.785156-91.390625 118.269532-91.390625-118.269532c-16.304687-21.097656-1.265625-51.722656 25.394531-51.722656h131.988282c26.664062 0 41.703124 30.625 25.398437 51.722656zm0 0" fill="#e3f4ff"/><path d="m445 435.109375h-378c0-27.058594 21.9375-48.996094 49-48.996094h280c27.0625 0 49 21.9375 49 48.996094zm0 0" fill="#64bdff"/><path d="m460.597656 477.148438h-409.195312c-5.523438 0-10-4.476563-10-10v-35c0-5.523438 4.476562-10 10-10h409.195312c5.523438 0 10 4.476562 10 10v35c0 5.523437-4.476562 10-10 10zm0 0" fill="#e3f4ff"/><path d="m256 253.398438c-11.921875 0-21.589844-9.667969-21.589844-21.589844v-40.707032h43.179688v40.707032c0 11.921875-9.667969 21.589844-21.589844 21.589844zm0 0" fill="#e3f4ff"/><path d="m169.808594 102.355469v25.320312c-19.996094 0-36.210938 16.214844-36.210938 36.210938 0 20 16.214844 36.214843 36.210938 36.214843 20 0 36.214844-16.214843 36.214844-36.214843v-61.53125zm0 0" fill="#43a3f9"/><path d="m342.191406 102.355469v25.320312c20 0 36.210938 16.214844 36.210938 36.210938 0 20-16.210938 36.214843-36.210938 36.214843s-36.210937-16.214843-36.210937-36.214843v-61.53125zm0 0" fill="#43a3f9"/><path d="m349.671875 114.722656c0 10.960938-8.882813 19.84375-19.839844 19.84375-10.960937 0-19.84375-8.882812-19.84375-19.84375 0-10.957031 8.882813-19.839844 19.84375-19.839844 10.957031 0 19.839844 8.882813 19.839844 19.839844zm0 0" fill="#83d9ff"/><path d="m202.011719 114.722656c0 10.960938-8.882813 19.84375-19.839844 19.84375-10.960937 0-19.84375-8.882812-19.84375-19.84375 0-10.957031 8.882813-19.839844 19.84375-19.839844 10.957031 0 19.839844 8.882813 19.839844 19.839844zm0 0" fill="#83d9ff"/><path d="m256 210.875c-30.921875 0-56.652344-23.769531-59.09375-54.597656l-9.140625-115.273438h136.46875l-9.140625 115.273438c-2.441406 30.828125-28.171875 54.597656-59.09375 54.597656zm0 0" fill="#aeeaff"/><path d="m343.597656 95.445312h-175.195312c-5.828125 0-10.550782-4.722656-10.550782-10.550781 0-42.746093 34.648438-77.394531 77.390626-77.394531h41.515624c42.742188 0 77.390626 34.648438 77.390626 77.394531.003906 5.828125-4.722657 10.550781-10.550782 10.550781zm0 0" fill="#43a3f9"/><path d="m354.148438 84.894531c0 2.910157-1.179688 5.546875-3.089844 7.457031-1.910156 1.910157-4.539063 3.089844-7.457032 3.089844h-20.222656c2.921875 0 5.550782-1.179687 7.460938-3.089844 1.910156-1.910156 3.089844-4.546874 3.089844-7.457031 0-42.742187-34.648438-77.390625-77.390626-77.390625h20.222657c42.738281 0 77.386719 34.648438 77.386719 77.390625zm0 0" fill="#1685fb"/><path d="m509.085938 75.546875c-3.277344-2.535156-7.988282-1.929687-10.519532 1.347656l-138.121094 178.734375c-.675781-2.695312-1.644531-5.347656-2.90625-7.921875-6.707031-13.660156-20.328124-22.144531-35.542968-22.144531h-36.90625v-13.859375c5.863281-2.84375 11.339844-6.542969 16.226562-11.058594 2.804688-2.589843 5.347656-5.402343 7.640625-8.382812 8.199219 9.558593 20.316407 15.339843 33.234375 15.339843 24.101563 0 43.710938-19.609374 43.710938-43.710937 0-19.238281-12.308594-35.667969-29.839844-41.472656.71875-2.441407 1.109375-5.019531 1.109375-7.691407 0-5.222656-1.515625-10.203124-4.171875-14.449218 5.179688-3.175782 8.652344-8.875 8.652344-15.382813 0-46.808593-38.085938-84.894531-84.894532-84.894531h-41.515624c-15.359376 0-30.417969 4.15625-43.554688 12.023438-3.550781 2.125-4.707031 6.734374-2.578125 10.285156 2.125 3.554687 6.734375 4.710937 10.285156 2.582031 10.804688-6.46875 23.203125-9.890625 35.847657-9.890625h41.515624c38.539063 0 69.894532 31.351562 69.894532 69.894531 0 1.683594-1.371094 3.054688-3.054688 3.054688h-44.496094c.003907-.085938.011719-.171875.011719-.257813v-30.523437c0-4.144531-3.355469-7.5-7.5-7.5-4.140625 0-7.5 3.355469-7.5 7.5v30.523437c0 .085938.011719.171875.011719.253906h-5.972656c.003906-.082031.011718-.167968.011718-.253906v-18.480468c0-4.140626-3.355468-7.5-7.5-7.5-4.140624 0-7.5 3.359374-7.5 7.5v18.480468c0 .085938.011719.171875.015626.253906h-94.773438c-1.683594 0-3.054688-1.367187-3.054688-3.050781 0-13.714843 3.980469-27 11.515626-38.421875 2.28125-3.460937 1.328124-8.113281-2.128907-10.390625-3.457031-2.28125-8.109375-1.328125-10.390625 2.128907-9.15625 13.882812-13.996094 30.023437-13.996094 46.683593 0 6.5 3.464844 12.191407 8.632813 15.371094-2.648437 4.246094-4.15625 9.222656-4.15625 14.457031 0 2.671875.390625 5.253906 1.109375 7.695313-17.53125 5.804687-29.839844 22.230469-29.839844 41.46875 0 24.105469 19.609375 43.714843 43.710938 43.714843 13.070312 0 25.066406-5.699218 33.246094-15.328124 2.289062 2.976562 4.828124 5.785156 7.628906 8.371093 4.886718 4.515625 10.363281 8.214844 16.226562 11.058594v13.859375h-36.902344c-15.21875 0-28.835937 8.484375-35.542968 22.144531-1.265625 2.574219-2.230469 5.226563-2.910156 7.921875l-138.121094-178.734375c-2.53125-3.277343-7.242188-3.882812-10.519532-1.347656-3.277343 2.53125-3.878906 7.242187-1.347656 10.519531l211.628906 273.859375-171.726562-134.761719c-3.257812-2.558593-7.972656-1.992187-10.53125 1.269532-2.554688 3.257812-1.988281 7.972656 1.273438 10.53125l180.5 141.648437h-20.449219c-4.140625 0-7.5 3.355469-7.5 7.5 0 4.140625 3.359375 7.5 7.5 7.5h203.738281c15.269531 0 28.894531 8.179688 36.132812 21.035157h-52.871093c-4.140625 0-7.5 3.355468-7.5 7.5 0 4.140624 3.359375 7.5 7.5 7.5h81.335937c1.378906 0 2.5 1.121093 2.5 2.5v35c0 1.375-1.121094 2.5-2.5 2.5h-409.195312c-1.378906 0-2.5-1.125-2.5-2.5v-35c0-1.378907 1.121094-2.5 2.5-2.5h293.335937c4.140625 0 7.5-3.359376 7.5-7.5 0-4.144532-3.359375-7.5-7.5-7.5h-264.855469c7.265626-12.832032 20.960938-21.035157 36.117188-21.035157h41.738281c4.144531 0 7.5-3.359375 7.5-7.5 0-4.144531-3.355469-7.5-7.5-7.5h-41.738281c-23.414062 0-44.273438 14.378907-52.671875 36.035157h-11.925781c-9.648438 0-17.5 7.851562-17.5 17.5v35c0 9.648437 7.851562 17.5 17.5 17.5h409.195312c9.648438 0 17.5-7.851563 17.5-17.5v-35c0-9.648438-7.851562-17.5-17.5-17.5h-11.925781c-8.390625-21.703126-29.09375-36.035157-52.671875-36.035157h-96.707031l180.5-141.648437c3.257812-2.558594 3.828125-7.273438 1.269531-10.53125-2.554688-3.261719-7.269531-3.828125-10.527344-1.269532l-171.730468 134.761719 211.628906-273.859375c2.535156-3.277344 1.929687-7.988281-1.347656-10.519531zm-165.011719 178.773437c4.230469 8.613282 3.25 18.285157-2.617188 25.878907 0 0-.003906.003906-.003906.003906l-76.046875 98.410156h-1.90625v-118.703125c9.597656-2.5625 17.257812-9.921875 20.238281-19.347656h38.257813c9.59375 0 17.847656 5.144531 22.078125 13.757812zm-10.558594-151.375c5.105469 1.597657 8.65625 6.40625 8.65625 11.777344 0 6.804688-5.535156 12.34375-12.339844 12.34375-1.675781 0-3.304687-.339844-4.820312-.984375l1.835937-23.132812h6.667969zm37.386719 60.941407c0 15.832031-12.878906 28.714843-28.710938 28.714843-10.304687 0-19.828125-5.601562-24.910156-14.445312 2.898438-6.6875 4.703125-13.863281 5.292969-21.285156l1.226562-15.476563c1.964844.445313 3.984375.671875 6.03125.671875 6.683594 0 12.8125-2.417968 17.570313-6.414062 13.546875 2.457031 23.5 14.207031 23.5 28.234375zm-183.914063-37.800781c-1.511719.640624-3.140625.980468-4.816406.980468-6.808594 0-12.34375-5.539062-12.34375-12.34375 0-5.238281 3.320313-9.921875 8.261719-11.652344.105468-.039062.203125-.085937.300781-.125h6.761719zm-17.179687 66.515624c-15.832032 0-28.710938-12.878906-28.710938-28.710937 0-14.027344 9.953125-25.78125 23.503906-28.238281 4.753907 4 10.882813 6.414062 17.570313 6.414062 2.050781 0 4.066406-.234375 6.027344-.675781l1.230469 15.480469c.585937 7.425781 2.394531 14.601562 5.292968 21.292968-5.117187 8.945313-14.503906 14.4375-24.914062 14.4375zm34.574218-36.914062-4.183593-52.742188h111.601562l-4.183593 52.742188c-2.117188 26.738281-24.792969 47.6875-51.617188 47.6875s-49.496094-20.949219-51.617188-47.6875zm51.617188 62.6875c4.78125 0 9.496094-.523438 14.089844-1.511719v14.945313c0 7.769531-6.320313 14.085937-14.089844 14.085937s-14.089844-6.320312-14.089844-14.085937v-14.945313c4.59375.988281 9.308594 1.511719 14.089844 1.511719zm-85.457031 61.824219c-5.867188-7.59375-6.84375-17.269531-2.617188-25.878907 3.078125-6.261718 8.28125-10.675781 14.582031-12.628906v11.707032c0 4.140624 3.355469 7.5 7.5 7.5 4.140626 0 7.5-3.359376 7.5-7.5v-12.835938h4.660157v12.835938c0 4.140624 3.355469 7.5 7.5 7.5 4.140625 0 7.5-3.359376 7.5-7.5v-12.835938h11.09375c2.980469 9.425781 10.640625 16.785156 20.238281 19.347656v118.703125h-1.90625l-76.046875-98.40625c0-.003906 0-.007812-.003906-.007812zm0 0"/><path d="m97.5 446.109375v7c0 4.144531 3.359375 7.5 7.5 7.5s7.5-3.355469 7.5-7.5v-7c0-4.140625-3.359375-7.5-7.5-7.5s-7.5 3.359375-7.5 7.5zm0 0"/><path d="m71.5 446.109375v7c0 4.144531 3.359375 7.5 7.5 7.5s7.5-3.355469 7.5-7.5v-7c0-4.140625-3.359375-7.5-7.5-7.5s-7.5 3.359375-7.5 7.5zm0 0"/><path d="m131 438.609375c-4.140625 0-7.5 3.359375-7.5 7.5v7c0 4.144531 3.359375 7.5 7.5 7.5h302c4.140625 0 7.5-3.355469 7.5-7.5v-7c0-4.140625-3.359375-7.5-7.5-7.5-3.972656 0-7.226562 3.09375-7.484375 7h-287.03125c-.257813-3.90625-3.507813-7-7.484375-7zm0 0"/><path d="m291.613281 296.257812h18.375c4.140625 0 7.5-3.359374 7.5-7.5 0-4.140624-3.359375-7.5-7.5-7.5h-18.375c-4.140625 0-7.5 3.359376-7.5 7.5 0 4.140626 3.359375 7.5 7.5 7.5zm0 0"/><path d="m399.84375 36.679688c.070312 0 .144531.003906.214844.003906 4.042968 0 7.378906-3.222656 7.492187-7.289063l.011719-.398437c.117188-4.140625-3.144531-7.59375-7.285156-7.707032-4.148438-.117187-7.59375 3.144532-7.707032 7.285157l-.011718.398437c-.117188 4.136719 3.144531 7.589844 7.285156 7.707032zm0 0"/><path d="m400.351562 46.667969c-4.140624-.128907-7.589843 3.144531-7.707031 7.285156l-.011719.398437c-.117187 4.140626 3.144532 7.59375 7.285157 7.710938h.214843c4.046876 0 7.378907-3.21875 7.496094-7.289062l.007813-.394532c.117187-4.140625-3.144531-7.59375-7.285157-7.710937zm0 0"/><path d="m405.09375 41.421875c-.117188 4.136719 3.144531 7.589844 7.285156 7.707031l.398438.011719h.214844c4.042968 0 7.378906-3.21875 7.492187-7.289063.117187-4.136718-3.144531-7.589843-7.285156-7.707031l-.398438-.011719c-4.15625-.109374-7.589843 3.144532-7.707031 7.289063zm0 0"/><path d="m386.996094 49.203125.398437.011719h.214844c4.042969 0 7.378906-3.21875 7.492187-7.289063.117188-4.140625-3.144531-7.589843-7.285156-7.707031l-.398437-.011719c-4.140625-.128906-7.589844 3.144531-7.707031 7.285157-.117188 4.140624 3.144531 7.59375 7.285156 7.710937zm0 0"/><path d="m108.746094 46.171875c.070312 0 .144531.003906.214844.003906 4.042968 0 7.378906-3.222656 7.492187-7.289062l.011719-.398438c.117187-4.140625-3.144532-7.59375-7.285156-7.710937-4.148438-.113282-7.59375 3.148437-7.707032 7.289062l-.011718.398438c-.117188 4.136718 3.144531 7.589844 7.285156 7.707031zm0 0"/><path d="m109.253906 56.160156c-4.164062-.132812-7.589844 3.144532-7.707031 7.285156l-.011719.398438c-.117187 4.140625 3.144532 7.59375 7.285156 7.710938h.21875c4.042969 0 7.375-3.21875 7.492188-7.289063l.011719-.398437c.113281-4.136719-3.148438-7.589844-7.289063-7.707032zm0 0"/><path d="m113.996094 50.910156c-.117188 4.140625 3.144531 7.59375 7.285156 7.710938l.398438.011718h.214843c4.042969 0 7.378907-3.21875 7.492188-7.289062.117187-4.136719-3.144531-7.589844-7.285157-7.707031l-.398437-.011719c-4.15625-.109375-7.589844 3.144531-7.707031 7.285156zm0 0"/><path d="m95.898438 58.695312.398437.011719c.074219 0 .144531.003907.214844.003907 4.042969 0 7.378906-3.222657 7.492187-7.289063.117188-4.140625-3.144531-7.59375-7.285156-7.710937l-.398438-.011719c-4.140624-.128907-7.589843 3.148437-7.707031 7.289062-.117187 4.140625 3.144531 7.589844 7.285157 7.707031zm0 0"/><path d="m403.582031 112.828125-.011719.398437c-.117187 4.136719 3.144532 7.589844 7.285157 7.707032.070312 0 .144531.003906.214843.003906 4.042969 0 7.378907-3.222656 7.492188-7.289062l.011719-.398438c.117187-4.140625-3.144531-7.59375-7.285157-7.710938-4.15625-.121093-7.589843 3.148438-7.707031 7.289063zm0 0"/><path d="m410.929688 146.316406c.074218 0 .144531.003906.214843.003906 4.046875 0 7.378907-3.222656 7.492188-7.289062l.011719-.398438c.117187-4.140624-3.144532-7.59375-7.285157-7.707031-4.148437-.113281-7.589843 3.144531-7.707031 7.285157l-.011719.398437c-.117187 4.136719 3.144531 7.589844 7.285157 7.707031zm0 0"/><path d="m416.105469 125.675781c-.117188 4.140625 3.144531 7.589844 7.285156 7.707031l.398437.011719c.070313 0 .144532.003907.214844.003907 4.042969 0 7.378906-3.222657 7.492188-7.289063.117187-4.140625-3.144532-7.59375-7.285156-7.710937l-.398438-.007813c-4.164062-.121094-7.589844 3.140625-7.707031 7.285156zm0 0"/><path d="m398.007812 133.457031.398438.011719c.074219 0 .144531.003906.214844.003906 4.042968 0 7.378906-3.222656 7.492187-7.289062.117188-4.140625-3.144531-7.59375-7.285156-7.710938l-.398437-.007812c-4.148438-.113282-7.589844 3.144531-7.707032 7.285156-.117187 4.140625 3.144532 7.589844 7.285156 7.707031zm0 0"/><path d="m234.546875 123.777344c-.023437-4.125-3.375-7.457032-7.5-7.457032-.011719 0-.027344 0-.039063 0h-.09375c-4.140624.019532-7.4375 3.394532-7.414062 7.539063.023438 4.128906 3.421875 7.457031 7.546875 7.457031h.039063c4.140624-.019531 7.480468-3.394531 7.460937-7.539062zm0 0"/><path d="m285.046875 131.320312h.039063c4.144531-.023437 7.484374-3.398437 7.460937-7.542968-.023437-4.125-3.375-7.457032-7.5-7.457032-.011719 0-.027344 0-.039063 0h-.09375c-4.140624.019532-7.4375 3.394532-7.414062 7.539063.023438 4.128906 3.421875 7.460937 7.546875 7.460937zm0 0"/><path d="m283.625 152.246094c.652344-4.089844-2.132812-7.9375-6.226562-8.589844-4.089844-.652344-7.933594 2.132812-8.585938 6.226562-1.011719 6.332032-6.402344 10.929688-12.8125 10.929688-6.414062 0-11.800781-4.597656-12.8125-10.929688-.652344-4.09375-4.503906-6.882812-8.589844-6.226562-4.089844.652344-6.875 4.5-6.222656 8.589844 2.179688 13.65625 13.796875 23.566406 27.621094 23.566406 13.828125 0 25.449218-9.910156 27.628906-23.566406zm0 0"/></svg>